<?xml version="1.0" standalone="no"?>
<!DOCTYPE svg PUBLIC "-//W3C//DTD SVG 20010904//EN"
 "http://www.w3.org/TR/2001/REC-SVG-20010904/DTD/svg10.dtd">
<svg version="1.0" xmlns="http://www.w3.org/2000/svg"
 width="626.000000pt" height="626.000000pt" viewBox="0 0 626.000000 626.000000"
 preserveAspectRatio="xMidYMid meet">

<g transform="translate(0.000000,626.000000) scale(0.100000,-0.100000)"
fill="#000000" stroke="none">
<path d="M2704 5783 c39 -55 96 -159 96 -177 0 -8 -37 -10 -130 -8 -124 3
-258 -13 -323 -37 -21 -9 -21 -9 8 -16 106 -24 220 -61 285 -93 l75 -36 -55
-9 c-109 -16 -223 -47 -291 -78 l-69 -32 107 -53 c60 -29 121 -64 137 -77 l29
-24 -99 -53 c-54 -29 -125 -71 -158 -93 -62 -42 -194 -162 -186 -170 3 -2 48
8 100 24 138 40 136 41 89 -41 -33 -60 -64 -140 -97 -260 -4 -15 -17 -26 -32
-30 -24 -6 -25 -9 -31 -115 -13 -223 -10 -606 6 -700 22 -134 58 -247 119
-370 71 -143 75 -161 43 -239 -14 -33 -31 -80 -37 -103 -11 -44 -65 -96 -79
-76 -3 6 -26 40 -50 77 l-44 67 36 30 c51 42 80 105 67 148 -23 80 -84 92
-205 41 -38 -17 -72 -27 -76 -22 -7 6 -228 369 -529 867 -182 302 -341 558
-355 574 -11 11 -25 7 -84 -24 -70 -37 -171 -125 -171 -149 0 -7 106 -185 235
-395 129 -210 330 -541 446 -737 l211 -354 -35 -43 c-71 -88 -84 -141 -42
-182 30 -31 67 -32 131 -5 26 12 50 17 54 13 4 -4 26 -34 50 -67 35 -48 40
-60 29 -70 -8 -7 -147 -97 -310 -200 -164 -102 -302 -192 -307 -199 -6 -6 -33
-115 -62 -242 -148 -659 -190 -852 -193 -888 l-2 -40 335 -154 c797 -367 975
-435 1316 -498 501 -93 1020 -32 1522 180 218 91 1058 469 1071 481 4 4 -46
240 -140 659 -98 439 -110 488 -123 503 -7 7 -149 100 -317 207 -180 115 -304
199 -303 208 1 8 21 40 44 71 32 42 47 55 59 50 92 -40 132 -42 165 -8 40 40
28 97 -40 179 -18 23 -34 45 -34 49 0 8 17 36 380 636 145 239 318 523 385
630 67 107 125 201 129 207 11 20 -72 101 -154 149 -41 24 -80 44 -87 44 -11
0 -88 -120 -325 -510 -302 -496 -571 -936 -579 -944 -5 -6 -37 4 -77 22 -65
30 -121 39 -157 26 -23 -9 -45 -57 -45 -99 0 -30 9 -46 52 -91 l52 -55 -30
-54 c-16 -30 -36 -65 -46 -77 l-16 -22 -35 27 c-21 16 -37 38 -41 58 -3 18
-23 70 -43 117 -32 75 -34 87 -22 106 95 149 156 309 190 503 18 106 20 143
15 373 -4 140 -9 294 -12 343 -6 83 -7 87 -30 87 -18 0 -25 7 -30 28 -51 236
-183 456 -355 588 -69 53 -185 116 -257 139 -42 14 -52 20 -47 34 36 87 56
149 69 214 16 78 19 218 6 272 -6 27 -8 28 -15 10 -28 -74 -72 -158 -107 -205
-47 -63 -108 -130 -120 -130 -4 0 -45 39 -90 86 -113 117 -305 240 -422 270
l-28 7 36 -50z m-1650 -1227 c-17 -54 -35 -76 -62 -76 -45 0 -54 11 -41 51 17
50 24 55 69 51 36 -4 40 -6 34 -26z m4241 -23 c12 -39 11 -42 -9 -47 -43 -12
-56 -6 -76 34 -11 23 -18 45 -14 51 3 5 24 9 46 7 38 -3 42 -6 53 -45z m-4174
-81 c15 -6 15 -11 -2 -49 -17 -41 -20 -43 -60 -43 l-41 0 7 38 c4 20 11 43 17
50 11 13 52 15 79 4z m4097 -40 c8 -24 12 -45 11 -47 -2 -2 -20 -5 -39 -7 -33
-3 -37 0 -58 42 -21 42 -21 45 -5 52 10 4 31 6 47 5 25 -2 32 -8 44 -45z m-81
-121 c7 -24 10 -48 7 -52 -3 -5 -21 -9 -39 -9 -28 0 -37 6 -48 28 -29 55 -30
70 -5 75 57 11 72 4 85 -42z m-3917 35 c0 -2 -9 -25 -20 -50 -18 -44 -21 -46
-60 -46 -44 0 -46 4 -28 61 11 38 12 39 60 39 26 0 48 -2 48 -4z m59 -135 c11
-7 11 -15 2 -44 -16 -49 -34 -61 -76 -53 -19 4 -35 8 -35 10 0 1 7 23 16 49
14 43 19 47 47 47 18 0 38 -4 46 -9z m3781 -32 c15 -55 8 -69 -33 -69 -31 0
-36 4 -55 48 l-21 47 22 7 c12 3 34 6 49 7 24 1 29 -4 38 -40z m-3683 -103 c1
-1 -8 -23 -19 -49 -19 -44 -23 -47 -58 -47 -20 0 -39 3 -42 6 -8 7 11 75 24
91 7 9 24 11 52 7 22 -4 42 -7 43 -8z m3604 -36 c9 -25 15 -48 12 -52 -2 -5
-21 -8 -42 -8 -36 0 -39 2 -59 49 l-20 50 26 4 c56 9 66 4 83 -43z m-1251 19
c0 -12 -59 -39 -198 -90 -132 -47 -203 -90 -263 -159 l-48 -55 -95 1 -95 0
-39 50 c-67 83 -114 110 -317 184 -196 71 -196 72 -15 66 85 -3 223 -10 305
-16 121 -9 199 -8 400 5 138 8 273 17 300 18 28 2 53 4 58 5 4 1 7 -3 7 -9z
m-1186 -106 c33 -21 89 -63 122 -94 68 -63 102 -83 178 -106 42 -13 48 -17 31
-24 -85 -34 -357 50 -392 121 -13 25 -18 140 -7 140 4 0 34 -17 68 -37z m1240
-30 c-8 -86 -20 -105 -89 -138 -109 -51 -247 -76 -315 -56 -23 7 -22 9 20 20
80 23 130 53 188 112 48 49 167 128 195 129 4 0 5 -30 1 -67z m-2324 22 c0 -2
-9 -24 -20 -49 -19 -45 -20 -46 -66 -46 -38 0 -45 3 -40 16 3 9 9 28 12 42 10
42 19 48 68 44 25 -2 46 -5 46 -7z m3444 -43 c5 -23 7 -44 5 -46 -2 -2 -20 -6
-39 -8 -33 -3 -36 0 -57 42 -11 25 -19 49 -16 53 3 4 26 7 51 5 47 -3 47 -3
56 -46z m-3364 -86 c0 -2 -9 -25 -20 -50 -19 -45 -20 -46 -64 -46 l-45 0 14
48 c8 26 15 48 15 50 0 4 100 2 100 -2z m3280 -41 c7 -25 10 -48 7 -51 -3 -3
-20 -7 -38 -7 -26 -2 -36 4 -50 28 -9 17 -20 40 -24 53 -6 21 -4 22 43 22 l49
0 13 -45z m-2222 -91 c156 -47 218 -51 380 -25 138 23 165 22 322 -6 122 -22
223 -12 371 36 65 21 119 36 119 32 0 -11 -122 -89 -173 -110 -128 -55 -213
-62 -362 -31 -53 11 -112 20 -131 20 -18 0 -72 -9 -119 -20 -108 -25 -171 -25
-269 0 -93 23 -152 49 -228 98 -55 35 -78 62 -40 47 9 -3 68 -22 130 -41z
m-985 -1 c3 -5 -5 -28 -17 -53 -18 -39 -26 -45 -55 -48 -44 -5 -54 7 -40 49 6
19 12 40 15 47 4 13 90 17 97 5z m3125 -32 c20 -64 17 -71 -28 -71 -39 0 -42
2 -60 46 -11 25 -20 47 -20 49 0 6 33 13 66 14 27 1 32 -3 42 -38z m-3057 -99
c16 -6 16 -10 0 -52 -16 -44 -17 -45 -65 -48 -40 -3 -48 0 -43 12 3 8 11 33
17 55 10 37 14 41 43 40 18 0 39 -3 48 -7z m2977 -31 c18 -58 15 -71 -12 -71
-13 0 -31 -2 -39 -6 -10 -3 -21 10 -36 45 -11 27 -21 52 -21 55 0 7 30 13 66
15 27 1 32 -3 42 -38z m-2878 -111 c0 -5 -7 -28 -16 -50 -15 -38 -18 -40 -60
-40 -24 0 -44 3 -44 6 0 3 5 25 11 50 l11 44 49 0 c27 0 49 -4 49 -10z m2796
-40 c7 -24 12 -45 11 -46 -1 -1 -20 -5 -43 -8 l-41 -7 -19 48 c-10 26 -21 52
-23 56 -1 4 21 7 49 5 l53 -3 13 -45z m-2707 -96 c3 -2 -9 -21 -26 -42 -23
-29 -38 -38 -67 -40 -36 -3 -37 -2 -30 25 18 74 20 76 72 68 26 -4 49 -9 51
-11z m2620 -30 c7 -26 10 -48 8 -50 -12 -12 -71 13 -92 38 -31 36 -31 45 -2
51 67 13 74 10 86 -39z"/>
</g>
</svg>
